<svg width="15" height="19" viewBox="0 0 15 19" fill="none" xmlns="http://www.w3.org/2000/svg">
<path fill-rule="evenodd" clip-rule="evenodd" d="M3.08242 3.00781C3.66111 2.42478 4.34939 1.96195 5.10766 1.64597C5.86592 1.32999 6.67919 1.1671 7.50065 1.16667C9.1569 1.16667 10.7465 1.82812 11.9189 3.00781C13.093 4.1907 13.7515 5.79007 13.7507 7.45677C13.7507 10.3349 12.1548 12.9401 10.4923 14.8635C9.79173 15.6702 9.03218 16.4236 8.21992 17.1177C7.92513 17.3698 7.67826 17.5672 7.50065 17.7042C7.32357 17.5672 7.07617 17.3698 6.78138 17.1177C5.96913 16.4236 5.20957 15.6702 4.50899 14.8635C2.84649 12.9401 1.25065 10.3349 1.25065 7.45677C1.25065 5.7875 1.91003 4.1875 3.08242 3.00781ZM7.20065 18.7797L7.50065 18.3542L7.80065 18.7797C7.71279 18.8414 7.60803 18.8745 7.50065 18.8745C7.39328 18.8745 7.28851 18.8414 7.20065 18.7797ZM7.20065 18.7797L7.50065 18.3542L7.80065 18.7797L7.80274 18.7786L7.80794 18.775L7.82357 18.763L7.88503 18.7188C7.93711 18.6802 8.01315 18.624 8.10899 18.55C8.30065 18.4031 8.57253 18.187 8.89701 17.9094C9.74878 17.1813 10.5453 16.391 11.2798 15.5448C13.0027 13.5521 14.7923 10.7078 14.7923 7.45625C14.7923 5.51354 14.0246 3.64896 12.6579 2.27396C11.9824 1.59343 11.179 1.05322 10.2939 0.684414C9.40882 0.315608 8.45952 0.125489 7.50065 0.125C6.54182 0.12542 5.59255 0.315457 4.70745 0.684174C3.82235 1.05289 3.01891 1.59301 2.34336 2.27344C0.975351 3.65158 0.208066 5.51493 0.208985 7.45677C0.208985 10.7078 1.99857 13.5521 3.72149 15.5448C4.45605 16.391 5.25252 17.1813 6.1043 17.9094C6.4293 18.187 6.70065 18.4031 6.89232 18.55C6.98633 18.6224 7.0813 18.6936 7.17722 18.7635L7.19388 18.775L7.19857 18.7786L7.20065 18.7797ZM5.41732 7.41667C5.41732 6.86413 5.63681 6.33423 6.02751 5.94353C6.41821 5.55283 6.94812 5.33333 7.50065 5.33333C8.05319 5.33333 8.58309 5.55283 8.97379 5.94353C9.36449 6.33423 9.58399 6.86413 9.58399 7.41667C9.58399 7.9692 9.36449 8.4991 8.97379 8.8898C8.58309 9.28051 8.05319 9.5 7.50065 9.5C6.94812 9.5 6.41821 9.28051 6.02751 8.8898C5.63681 8.4991 5.41732 7.9692 5.41732 7.41667ZM7.50065 4.29167C6.67185 4.29167 5.87699 4.62091 5.29094 5.20696C4.70489 5.79301 4.37565 6.58786 4.37565 7.41667C4.37565 8.24547 4.70489 9.04032 5.29094 9.62638C5.87699 10.2124 6.67185 10.5417 7.50065 10.5417C8.32945 10.5417 9.12431 10.2124 9.71036 9.62638C10.2964 9.04032 10.6257 8.24547 10.6257 7.41667C10.6257 6.58786 10.2964 5.79301 9.71036 5.20696C9.12431 4.62091 8.32945 4.29167 7.50065 4.29167Z" fill="#F6A6BF"/>
</svg>
