<svg width="24" height="24" viewBox="0 0 24 24" fill="none" xmlns="http://www.w3.org/2000/svg">
<path d="M11.9989 5.9912C8.67372 5.9912 5.99013 8.67479 5.99013 12C5.99013 15.3252 8.67372 18.0088 11.9989 18.0088C15.3241 18.0088 18.0077 15.3252 18.0077 12C18.0077 8.67479 15.3241 5.9912 11.9989 5.9912ZM11.9989 15.9053C9.84853 15.9053 8.09364 14.1504 8.09364 12C8.09364 9.8496 9.84853 8.09471 11.9989 8.09471C14.1493 8.09471 15.9042 9.8496 15.9042 12C15.9042 14.1504 14.1493 15.9053 11.9989 15.9053ZM18.2538 4.34471C17.4774 4.34471 16.8505 4.97167 16.8505 5.74803C16.8505 6.5244 17.4774 7.15135 18.2538 7.15135C19.0302 7.15135 19.6571 6.52733 19.6571 5.74803C19.6574 5.56368 19.6212 5.3811 19.5508 5.21073C19.4803 5.04037 19.377 4.88558 19.2466 4.75522C19.1163 4.62486 18.9615 4.5215 18.7911 4.45106C18.6207 4.38062 18.4382 4.34448 18.2538 4.34471ZM23.7118 12C23.7118 10.3828 23.7265 8.78026 23.6356 7.166C23.5448 5.291 23.1171 3.62694 21.746 2.25585C20.372 0.881822 18.7108 0.457018 16.8358 0.366197C15.2186 0.275377 13.6161 0.290025 12.0018 0.290025C10.3847 0.290025 8.78212 0.275377 7.16786 0.366197C5.29286 0.457018 3.6288 0.884752 2.25771 2.25585C0.883684 3.62987 0.458879 5.291 0.368059 7.166C0.277239 8.78319 0.291887 10.3857 0.291887 12C0.291887 13.6142 0.277239 15.2197 0.368059 16.834C0.458879 18.709 0.886614 20.373 2.25771 21.7441C3.63173 23.1182 5.29286 23.543 7.16786 23.6338C8.78505 23.7246 10.3876 23.7099 12.0018 23.7099C13.619 23.7099 15.2216 23.7246 16.8358 23.6338C18.7108 23.543 20.3749 23.1152 21.746 21.7441C23.12 20.3701 23.5448 18.709 23.6356 16.834C23.7294 15.2197 23.7118 13.6172 23.7118 12ZM21.1337 18.9082C20.9198 19.4414 20.662 19.8398 20.2489 20.25C19.8358 20.6631 19.4403 20.9209 18.9071 21.1348C17.3661 21.7471 13.7069 21.6094 11.9989 21.6094C10.2909 21.6094 6.6288 21.7471 5.08779 21.1377C4.55458 20.9238 4.15615 20.666 3.74599 20.2529C3.3329 19.8398 3.07509 19.4443 2.86122 18.9111C2.25185 17.3672 2.38954 13.708 2.38954 12C2.38954 10.292 2.25185 6.62987 2.86122 5.08885C3.07509 4.55565 3.3329 4.15721 3.74599 3.74706C4.15907 3.3369 4.55458 3.07616 5.08779 2.86229C6.6288 2.25292 10.2909 2.39061 11.9989 2.39061C13.7069 2.39061 17.369 2.25292 18.9101 2.86229C19.4433 3.07616 19.8417 3.33397 20.2518 3.74706C20.6649 4.16014 20.9227 4.55565 21.1366 5.08885C21.746 6.62987 21.6083 10.292 21.6083 12C21.6083 13.708 21.746 17.3672 21.1337 18.9082Z" fill="white"/>
</svg>
